<?xml version="1.0" standalone="no"?>
<!DOCTYPE svg PUBLIC "-//W3C//DTD SVG 20010904//EN"
 "http://www.w3.org/TR/2001/REC-SVG-20010904/DTD/svg10.dtd">
<svg version="1.0" xmlns="http://www.w3.org/2000/svg"
 width="255.000000pt" height="301.000000pt" viewBox="0 0 255.000000 301.000000"
 preserveAspectRatio="xMidYMid meet">

<g transform="translate(0.000000,301.000000) scale(0.100000,-0.100000)"
fill="#000000" stroke="none">
<path d="M1440 2869 c-49 -23 -111 -26 -182 -9 -24 6 -113 13 -199 17 -133 5
-163 3 -208 -12 -66 -22 -205 -114 -292 -193 l-66 -61 -74 6 c-74 5 -76 5
-111 -26 -45 -39 -71 -94 -70 -147 0 -47 13 -77 50 -116 17 -19 23 -33 19 -50
-36 -140 -39 -165 -34 -333 6 -192 26 -285 79 -368 40 -62 111 -125 187 -166
41 -22 62 -39 65 -54 37 -211 53 -275 96 -383 70 -178 120 -247 234 -329 61
-42 239 -136 306 -160 19 -7 62 -29 94 -49 62 -38 118 -47 157 -25 11 5 42 12
70 14 47 3 52 1 82 -33 18 -21 92 -99 166 -174 122 -125 140 -139 195 -158
126 -42 221 -16 329 91 62 62 71 93 43 147 -24 45 -131 136 -278 236 -32 22
-58 43 -58 47 0 10 27 19 60 19 36 0 85 59 99 121 34 144 -20 362 -90 365 -13
1 -29 2 -36 3 -6 0 -19 25 -27 53 -8 29 -27 71 -42 92 -25 37 -26 43 -16 82
20 74 -17 144 -108 206 -27 18 -50 38 -50 44 0 6 12 21 26 35 41 37 98 118
135 190 29 56 33 76 37 162 4 85 1 108 -23 184 -29 93 -90 222 -135 288 -16
22 -63 78 -104 125 l-76 85 2 55 c2 62 -6 93 -34 133 -43 60 -144 82 -218 46z
m137 -20 c15 -5 40 -22 56 -37 23 -22 27 -34 27 -80 0 -59 2 -58 -67 -37 -43
13 -25 -23 31 -64 29 -22 94 -86 143 -143 107 -125 194 -286 219 -408 39 -187
-31 -362 -189 -476 -28 -21 -73 -56 -100 -78 -26 -21 -50 -36 -55 -32 -6 7 -6
35 1 120 2 26 -2 29 -48 41 -95 23 -234 55 -243 55 -18 0 -98 -117 -109 -160
-35 -135 -35 -144 -17 -157 10 -7 21 -13 26 -13 4 0 8 -16 8 -35 0 -35 -1 -36
-32 -30 -18 3 -55 8 -81 10 -27 2 -57 11 -66 19 -14 13 -44 16 -152 16 -125 0
-142 2 -249 35 -214 66 -308 154 -354 332 -12 45 -16 111 -16 252 0 179 2 195
25 257 19 50 22 70 15 85 -6 10 -15 19 -20 19 -18 0 -60 75 -60 106 0 37 49
115 85 134 23 12 35 12 88 -2 l62 -16 92 88 c117 112 208 167 297 181 80 13
294 7 391 -11 102 -18 130 -16 166 14 33 28 78 34 126 15z m-65 -1190 l107
-24 -4 -50 c-6 -92 -17 -140 -43 -177 -13 -21 -28 -38 -32 -38 -17 0 25 155
51 189 11 13 17 27 14 30 -3 3 -16 -7 -28 -23 l-22 -27 -120 27 c-66 15 -126
30 -133 33 -21 11 56 94 82 88 12 -3 69 -15 128 -28z m-121 -100 c46 -11 100
-25 120 -30 l36 -9 -13 -77 c-8 -42 -18 -81 -23 -86 -12 -12 -233 30 -258 48
-13 10 -13 19 2 81 22 93 23 94 38 94 7 0 51 -9 98 -21z m469 -75 c48 -38 100
-107 100 -133 0 -24 -36 -78 -61 -91 -35 -19 -136 6 -176 43 -43 40 -68 104
-54 138 10 28 91 78 126 78 11 1 40 -15 65 -35z m-250 -92 c0 -23 -7 -32 -36
-46 -20 -9 -38 -16 -39 -14 -3 3 67 86 73 87 1 1 2 -12 2 -27z m34 -16 c4 -21
25 -55 51 -84 39 -43 45 -56 45 -93 l0 -44 -56 105 c-54 102 -78 170 -57 157
6 -4 14 -22 17 -41z m-284 -14 c0 -4 -9 -13 -20 -20 -23 -14 -28 -72 -6 -72 7
0 40 14 73 31 39 20 70 29 89 27 25 -4 17 -10 -73 -54 -56 -28 -108 -56 -117
-63 -14 -12 -16 -5 -16 66 0 44 3 83 7 86 9 10 63 9 63 -1z m-652 -26 c32 -16
151 -36 217 -36 31 0 47 -5 51 -15 5 -12 28 -15 118 -15 160 0 188 -26 127
-121 -54 -86 -116 -132 -253 -187 -30 -13 -36 -33 -14 -51 11 -9 29 -6 82 15
64 25 184 99 184 113 0 3 13 21 29 40 l28 34 53 -82 c51 -80 54 -83 84 -77 35
7 177 76 276 134 65 38 65 38 68 87 l3 50 98 -1 c53 0 102 -4 108 -7 5 -3 18
-27 27 -51 l18 -46 -29 -25 c-15 -13 -38 -25 -50 -25 -39 0 -51 -36 -59 -170
-9 -149 -10 -140 27 -215 l29 -60 -57 -54 c-31 -30 -76 -62 -100 -73 -47 -21
-198 -46 -209 -35 -4 4 -2 19 5 34 7 16 15 62 18 103 4 65 1 88 -26 172 -35
106 -34 106 -120 107 -45 1 -61 6 -92 31 -35 27 -44 30 -111 29 -111 0 -206
-45 -171 -80 9 -9 18 -8 40 6 19 13 53 20 108 23 l80 4 -27 -28 c-43 -46 -66
-182 -46 -272 6 -28 8 -55 4 -59 -4 -4 -19 0 -34 10 -15 9 -56 31 -91 48 -35
17 -99 55 -142 85 -66 47 -86 68 -133 143 -73 116 -90 155 -125 297 -60 248
-60 255 7 220z m731 11 c-24 -19 -100 -54 -104 -47 -7 12 56 50 84 50 13 0 22
-1 20 -3z m229 -112 c29 -52 52 -97 52 -100 0 -7 -300 -155 -315 -155 -13 0
-109 184 -103 200 3 11 280 147 304 149 6 1 34 -42 62 -94z m388 -190 c8 -19
33 -19 54 0 21 19 31 8 49 -52 32 -115 23 -273 -21 -335 -17 -24 -26 -28 -70
-28 -45 0 -54 4 -83 35 -47 49 -65 111 -65 225 0 111 15 149 51 127 18 -10 23
-8 40 16 23 30 37 34 45 12z m-640 -206 c4 -6 20 -8 39 -5 19 4 36 3 39 -2 9
-15 46 -205 46 -238 0 -59 -69 -164 -107 -164 -10 0 -44 17 -75 37 -58 38 -78
68 -78 122 0 14 -4 32 -8 39 -8 12 11 163 23 182 4 6 21 8 39 4 28 -5 34 -2
39 15 5 22 31 28 43 10z m582 -294 c20 -14 40 -25 43 -25 4 0 31 -17 61 -37
155 -107 248 -192 248 -227 0 -38 -38 -85 -107 -130 -88 -58 -123 -64 -210
-36 -65 22 -74 29 -211 169 -78 80 -141 150 -139 156 2 5 26 13 53 16 64 8
100 27 166 88 29 28 54 50 56 51 2 0 20 -11 40 -25z"/>
<path d="M1490 2210 c-20 -13 -18 -91 3 -124 10 -14 26 -30 37 -36 29 -16 80
35 80 80 0 41 -18 73 -36 66 -8 -3 -17 1 -20 9 -7 17 -41 20 -64 5z"/>
<path d="M1189 2107 c-45 -21 -109 -112 -109 -155 0 -10 9 -27 20 -37 16 -15
30 -17 75 -11 l55 6 0 -40 c0 -51 -34 -90 -80 -90 -34 0 -39 -14 -10 -30 29
-16 83 13 106 56 10 18 19 34 20 34 1 0 18 -7 37 -15 69 -29 158 -11 172 36
11 33 -3 35 -35 4 -26 -25 -34 -27 -77 -22 -32 3 -53 12 -65 27 -27 33 -22 47
20 60 78 25 100 58 72 111 -28 52 -148 92 -201 66z"/>
<path d="M810 2057 c-35 -18 -41 -91 -10 -130 41 -52 110 -28 110 38 0 46 -9
65 -30 65 -10 0 -24 9 -31 20 -12 17 -17 18 -39 7z"/>
<path d="M1345 1643 c-15 -15 -15 -18 -2 -28 8 -6 56 -19 106 -29 73 -15 94
-16 106 -6 20 17 19 37 -2 44 -41 12 -156 36 -173 36 -10 0 -26 -8 -35 -17z
m128 -24 c31 -7 57 -17 57 -22 0 -4 -8 -6 -17 -3 -10 3 -40 10 -67 16 -53 12
-103 35 -56 27 14 -3 51 -11 83 -18z"/>
<path d="M1290 1494 c-15 -71 2 -97 19 -30 13 54 14 86 2 86 -5 0 -15 -25 -21
-56z"/>
<path d="M1351 1504 c-15 -60 -17 -79 -6 -84 14 -7 39 100 26 113 -6 6 -13 -4
-20 -29z"/>
<path d="M1411 1476 c-14 -57 -14 -79 1 -74 12 4 39 104 30 113 -13 12 -20 2
-31 -39z"/>
<path d="M1477 1496 c-12 -32 -19 -106 -9 -106 9 0 32 73 32 104 0 20 -16 21
-23 2z"/>
<path d="M1560 1272 c0 -7 14 -38 32 -70 38 -69 36 -67 45 -59 3 4 -6 31 -22
59 -31 60 -55 90 -55 70z"/>
<path d="M1490 1238 c0 -7 14 -33 30 -58 16 -25 30 -51 30 -57 0 -7 5 -13 10
-13 16 0 12 17 -21 75 -32 57 -49 75 -49 53z"/>
<path d="M1410 1201 c0 -5 16 -33 35 -62 19 -30 35 -57 35 -61 0 -5 5 -8 10
-8 17 0 12 16 -26 79 -33 56 -54 76 -54 52z"/>
<path d="M1350 1169 c0 -17 71 -139 81 -139 17 0 9 20 -26 73 -19 28 -35 57
-35 64 0 7 -4 13 -10 13 -5 0 -10 -5 -10 -11z"/>
<path d="M1882 425 c-7 -9 -8 -15 -3 -15 7 0 9 -26 5 -73 l-7 -73 29 1 c23 0
30 -5 32 -22 4 -28 22 -30 22 -3 0 16 7 20 35 20 22 0 38 -6 44 -17 6 -10 11
-12 11 -5 0 7 15 12 40 12 38 0 40 -1 41 -32 l1 -33 7 30 c5 24 12 31 34 33
16 2 34 -2 42 -8 17 -14 23 2 16 44 -4 30 -5 30 -11 6 -4 -18 -14 -26 -34 -28
-32 -4 -46 10 -46 46 0 14 8 26 23 32 16 6 17 9 5 9 -9 1 -21 9 -27 19 -9 16
-10 16 -16 0 -4 -10 -17 -18 -29 -19 -19 -1 -18 -2 4 -8 19 -5 25 -13 25 -36
0 -28 -3 -30 -35 -30 -29 0 -36 4 -38 23 -2 13 1 29 7 35 12 15 -2 42 -18 33
-7 -5 -9 -22 -5 -46 7 -45 -7 -57 -51 -46 -18 5 -25 13 -25 32 0 13 7 27 15
30 12 5 13 10 4 20 -8 10 -15 10 -29 2 -25 -16 -52 -3 -48 24 4 28 37 36 54
14 10 -15 12 -15 18 -1 6 18 62 21 68 3 3 -8 10 -7 27 4 28 20 9 29 -48 21
-30 -4 -41 -2 -41 8 0 10 -3 10 -12 1 -15 -15 -58 -16 -58 -2 0 14 -13 12 -28
-5z m68 -104 c0 -34 -10 -49 -30 -44 -21 6 -35 36 -25 53 3 5 17 10 31 10 17
0 24 -6 24 -19z"/>
<path d="M2205 340 c20 -22 31 -20 22 5 -4 8 -14 15 -23 15 -16 0 -16 -2 1
-20z"/>
</g>
</svg>
