<?xml version="1.0" standalone="no"?>
<!DOCTYPE svg PUBLIC "-//W3C//DTD SVG 20010904//EN"
 "http://www.w3.org/TR/2001/REC-SVG-20010904/DTD/svg10.dtd">
<svg version="1.0" xmlns="http://www.w3.org/2000/svg"
 width="1108.000000pt" height="806.000000pt" viewBox="0 0 1108.000000 806.000000"
 preserveAspectRatio="xMidYMid meet">

<g transform="translate(0.000000,806.000000) scale(0.100000,-0.100000)"
fill="#000000" stroke="none">
<path d="M3667 7444 c-29 -29 186 -288 498 -599 229 -228 374 -352 720 -610
243 -181 406 -298 460 -329 34 -20 -74 86 -115 112 -14 9 -95 68 -180 130
-130 95 -157 120 -170 153 -54 139 -714 800 -1050 1051 -79 59 -154 101 -163
92z m271 -221 c183 -116 752 -679 752 -744 0 -16 -42 -9 -79 13 -189 115 -731
657 -731 731 0 22 24 22 58 0z"/>
<path d="M2586 7260 c4 -8 40 -60 79 -115 114 -160 237 -346 232 -351 -2 -3
-58 11 -123 31 -214 65 -347 50 -411 -46 -25 -38 -28 -51 -28 -128 0 -70 6
-106 34 -191 38 -121 120 -298 211 -455 34 -60 65 -114 68 -118 20 -36 -69 47
-273 255 -131 134 -249 251 -262 261 -20 16 -25 16 -50 3 -29 -15 -194 -178
-235 -231 -12 -16 -28 -36 -36 -44 -21 -22 -125 -161 -169 -226 -137 -204
-288 -487 -342 -646 -158 -458 -226 -899 -202 -1317 5 -96 11 -175 13 -177 2
-2 4 128 4 288 1 315 14 462 59 679 56 271 145 558 217 702 160 320 389 645
611 871 l99 100 41 -49 c262 -310 503 -576 627 -692 27 -25 50 -52 50 -58 0
-6 -24 -27 -53 -46 -192 -128 -403 -287 -477 -360 -250 -246 -304 -503 -215
-1025 26 -152 100 -476 135 -595 l20 -65 -6 50 c-4 28 -29 156 -56 285 -124
592 -132 896 -28 1101 81 158 195 273 415 416 72 47 169 112 216 144 101 68
100 68 171 -33 64 -91 65 -92 21 -67 l-40 23 -74 -28 c-109 -40 -309 -147
-392 -210 -158 -119 -235 -232 -279 -404 -20 -80 -14 -348 12 -497 38 -221
120 -561 142 -591 10 -13 21 -12 233 17 77 11 174 22 215 25 41 3 89 9 105 14
55 17 278 24 1040 34 l570 8 98 -77 c54 -43 97 -79 95 -81 -6 -5 -214 -13
-523 -20 -159 -3 -317 -7 -350 -9 -33 -2 -125 -6 -205 -10 -80 -3 -208 -10
-285 -16 -77 -5 -169 -12 -205 -14 -179 -13 -382 -36 -660 -76 -184 -26 -206
-27 -216 -13 -7 8 -14 11 -15 5 -4 -10 -31 -7 -394 48 -77 12 -216 33 -310 47
-93 14 -210 31 -260 39 -49 8 -101 15 -115 14 l-25 0 25 -11 c47 -19 65 -26
85 -32 11 -2 38 -12 60 -20 l40 -15 -40 -2 -40 -1 41 -13 c37 -12 175 -37 542
-101 250 -43 583 -111 593 -121 11 -11 50 -200 79 -378 22 -142 37 -290 46
-474 7 -129 6 -134 -12 -127 -43 17 -337 90 -428 106 -26 5 -67 16 -90 24 -22
8 -113 36 -201 61 -88 26 -249 76 -357 112 l-198 64 -1 107 c0 124 -1 141 -35
487 -14 143 -29 264 -35 270 -12 12 -12 -63 0 -175 5 -47 12 -119 15 -160 4
-41 11 -127 16 -190 5 -63 10 -154 10 -201 0 -117 7 -147 39 -164 30 -16 30
-15 -77 -40 -70 -17 -75 -20 -123 -79 l-49 -61 0 -452 c0 -248 -3 -458 -6
-466 -4 -11 9 -21 48 -35 29 -11 267 -102 528 -202 261 -100 554 -211 650
-247 96 -36 238 -90 315 -120 77 -29 163 -62 190 -72 28 -11 110 -42 183 -71
294 -114 317 -120 405 -119 44 1 90 6 100 13 15 8 21 8 24 -1 11 -31 103 -16
1038 172 237 48 438 91 447 96 9 5 29 9 44 9 15 0 45 5 68 11 108 28 161 41
286 70 181 41 175 40 159 49 -7 5 -17 6 -22 3 -13 -8 -233 -56 -467 -102 -25
-5 -57 -14 -71 -20 -15 -5 -29 -8 -31 -6 -2 3 -78 -11 -169 -31 -599 -129
-1042 -219 -1129 -230 -30 -4 -65 -11 -77 -15 -50 -18 -18 11 82 75 58 37 111
64 117 60 6 -4 8 -3 5 3 -4 6 10 22 31 34 20 13 43 28 51 33 9 6 12 5 7 -3
-11 -17 1 -13 44 14 70 44 43 19 -52 -49 -51 -36 -104 -76 -118 -87 l-25 -21
30 18 c17 10 75 45 130 77 55 33 134 81 175 107 73 47 102 57 185 66 l40 5
-30 -27 c-35 -30 -17 -22 39 18 21 15 50 28 64 28 22 0 20 -3 -22 -35 -47 -36
-61 -54 -28 -36 9 5 42 28 72 51 36 27 63 40 80 38 14 -1 31 1 38 5 6 5 12 4
12 -1 0 -10 -29 -26 -42 -24 -5 1 -7 -2 -5 -6 1 -4 -14 -23 -33 -41 -19 -18 1
-6 45 27 64 48 92 62 140 72 33 6 81 18 106 25 27 8 52 10 60 4 9 -5 22 -3 36
6 12 8 41 17 65 21 24 3 52 9 63 14 30 12 171 40 203 40 16 0 32 4 38 9 12 11
97 31 104 25 3 -3 -7 -14 -22 -25 -14 -11 -37 -29 -50 -40 -23 -21 21 8 85 56
19 14 54 29 78 34 24 5 73 17 108 26 36 8 70 14 77 11 6 -2 16 0 21 5 12 12
233 59 233 50 0 -4 -6 -13 -12 -20 -7 -8 6 -1 29 14 24 15 71 33 105 40 35 7
101 20 148 29 47 10 109 24 138 33 29 8 56 12 59 9 4 -3 -11 -22 -33 -42 -29
-27 -24 -24 22 11 52 38 74 49 135 60 41 7 126 23 189 35 63 12 126 23 140 26
14 2 53 10 88 18 34 7 62 10 62 6 0 -4 -76 -58 -168 -118 -93 -61 -175 -119
-183 -129 -13 -17 -13 -17 11 -2 14 9 74 47 135 84 137 84 258 165 266 178 4
5 -13 37 -37 69 -24 33 -44 66 -44 73 0 18 -152 117 -420 275 -124 73 -281
167 -350 209 -69 42 -132 81 -141 86 -9 6 -49 32 -89 58 -40 27 -80 51 -89 54
-9 3 -25 14 -36 23 -11 10 -81 55 -155 101 -74 45 -136 86 -138 91 -2 4 -28 8
-58 8 -37 0 -54 4 -54 13 0 6 6 71 14 142 8 72 20 183 27 248 8 86 15 117 25
117 8 0 44 -19 81 -42 89 -54 498 -261 638 -323 292 -127 548 -219 820 -295
44 -12 109 -31 145 -41 36 -10 106 -42 155 -70 102 -58 400 -209 520 -264 68
-32 343 -156 440 -200 17 -7 70 -31 118 -54 49 -23 91 -41 93 -41 2 0 30 -13
62 -28 114 -55 122 -53 25 9 -101 63 -183 130 -183 148 0 10 5 22 11 28 13 13
18 11 -186 62 -227 57 -433 135 -665 252 -225 112 -234 122 -85 94 87 -17 229
-37 395 -55 84 -10 122 -20 190 -50 416 -185 1023 -366 1427 -425 57 -8 115
-15 130 -15 28 0 28 0 -15 39 -163 147 -427 284 -792 411 -101 35 -125 49
-100 58 29 10 80 70 80 94 0 43 -47 123 -106 180 l-59 56 -105 16 c-300 45
-603 48 -732 7 -65 -21 -108 -55 -108 -87 0 -29 -29 -23 -179 37 -180 72 -445
207 -611 312 -152 96 -481 334 -496 358 -5 9 15 10 82 5 338 -27 396 -31 400
-24 2 4 -42 40 -98 80 -174 123 -462 343 -502 383 -9 10 -15 19 -13 21 2 3 85
-7 183 -20 98 -14 244 -32 324 -41 80 -9 161 -18 181 -20 112 -13 223 -17 214
-8 -5 5 -62 45 -125 88 -114 78 -361 262 -494 368 -68 54 -70 55 -190 77 -185
33 -320 61 -333 69 -22 12 -236 202 -294 261 -23 23 -27 38 -33 116 -10 124
-33 276 -62 407 -13 61 -23 111 -22 113 2 1 44 -27 93 -63 91 -65 152 -100
161 -91 2 3 -46 46 -108 95 -147 118 -166 139 -183 204 -8 29 -13 55 -10 57 5
5 151 -73 240 -128 286 -177 585 -392 710 -511 44 -41 100 -89 125 -106 43
-29 144 -83 155 -83 78 0 -710 573 -1166 848 -52 31 -89 60 -92 73 -3 11 -2
19 2 17 4 -2 49 -24 101 -50 52 -26 107 -50 123 -54 104 -24 -93 181 -548 572
-435 373 -715 578 -747 546 -35 -35 222 -337 498 -583 136 -122 290 -243 406
-320 74 -48 85 -59 72 -69 -12 -10 -27 -7 -82 19 -38 17 -81 31 -96 31 -24 0
-26 -3 -20 -22 3 -13 22 -42 40 -65 19 -23 34 -45 34 -50 0 -9 -189 -137 -270
-182 l-55 -30 -60 19 c-33 10 -112 38 -175 60 -63 23 -123 44 -132 47 -18 5
-171 188 -293 348 -96 127 -104 135 -160 160 -156 70 -402 195 -416 211 -9 11
-71 101 -138 201 -66 100 -130 190 -141 201 -18 16 -232 136 -335 187 -33 17
-47 33 -79 97 -26 52 -39 92 -40 124 -2 43 -6 49 -47 76 -24 16 -93 78 -153
136 -60 59 -105 100 -100 92z m-2 -633 c120 -184 425 -619 456 -647 15 -15
110 -144 110 -151 0 -9 -19 -15 -79 -24 -52 -9 -88 -42 -97 -91 -7 -40 0 -143
14 -197 16 -60 -5 -43 -84 70 -191 272 -378 613 -434 790 -40 130 -48 215 -25
285 15 49 40 88 54 88 3 0 42 -55 85 -123z m601 -40 c137 -72 84 -10 412 -484
277 -399 335 -478 547 -742 409 -508 979 -1100 1491 -1547 268 -234 381 -325
690 -560 305 -231 554 -382 855 -520 219 -100 507 -200 525 -182 3 3 1 16 -5
29 -27 58 33 106 160 129 76 14 356 14 459 1 86 -11 116 -34 157 -118 26 -52
26 -52 7 -90 -18 -38 -61 -62 -135 -78 -29 -6 -37 -23 -15 -30 6 -2 80 -25
162 -50 267 -83 496 -180 645 -271 105 -65 127 -81 119 -88 -9 -9 -304 50
-473 95 -280 74 -622 196 -848 302 -87 40 -110 47 -210 57 -245 24 -589 84
-640 111 -41 22 -132 95 -193 157 -52 52 -76 67 -178 110 -232 99 -460 243
-752 477 -295 235 -588 537 -613 629 -6 23 -27 41 -87 79 -185 115 -404 297
-585 484 -220 227 -328 381 -354 505 -4 18 -23 39 -54 60 -46 31 -267 247
-348 338 -249 282 -494 654 -494 749 0 25 -19 53 -100 144 -55 62 -118 137
-140 167 -114 161 -140 200 -133 200 4 0 62 -29 128 -63z m-75 -198 c0 -11
-27 -12 -34 0 -3 4 -3 11 0 14 8 8 34 -3 34 -14z m-265 -19 c3 -5 1 -10 -4
-10 -6 0 -11 5 -11 10 0 6 2 10 4 10 3 0 8 -4 11 -10z m150 -10 c3 -5 1 -10
-4 -10 -6 0 -11 5 -11 10 0 6 2 10 4 10 3 0 8 -4 11 -10z m1677 -46 c66 -45
263 -199 288 -224 3 -3 30 -25 60 -50 190 -154 400 -362 400 -397 0 -25 -19
-30 -38 -11 -6 6 -19 13 -27 14 -29 4 -145 75 -247 151 -57 42 -105 79 -108
82 -3 4 -18 17 -35 30 -113 86 -303 273 -371 365 -82 110 -49 126 78 40z
m-1738 -10 c3 -8 2 -12 -4 -9 -6 3 -10 10 -10 16 0 14 7 11 14 -7z m286 -24
c0 -5 -2 -10 -4 -10 -3 0 -8 5 -11 10 -3 6 -1 10 4 10 6 0 11 -4 11 -10z m60
-140 c0 -5 -4 -10 -9 -10 -6 0 -13 5 -16 10 -3 6 1 10 9 10 9 0 16 -4 16 -10z
m-533 -408 c25 -35 43 -65 40 -68 -9 -9 -377 393 -377 412 0 17 292 -281 337
-344z m344 324 c-6 -7 -8 -22 -5 -32 6 -18 6 -18 -9 1 -13 17 -13 21 2 32 21
16 26 16 12 -1z m654 -47 c11 -17 -1 -21 -15 -4 -8 9 -8 15 -2 15 6 0 14 -5
17 -11z m-555 -59 c0 -5 -7 -10 -16 -10 -8 0 -12 5 -9 10 3 6 10 10 16 10 5 0
9 -4 9 -10z m600 -10 c0 -5 -2 -10 -4 -10 -3 0 -8 5 -11 10 -3 6 -1 10 4 10 6
0 11 -4 11 -10z m-379 -20 c21 0 26 -15 8 -25 -11 -7 -39 22 -38 40 0 6 3 4 6
-2 2 -7 13 -13 24 -13z m-166 -9 c3 -6 -4 -15 -15 -21 -20 -11 -21 -10 -10 9
12 23 16 25 25 12z m590 -31 c3 -5 1 -10 -4 -10 -6 0 -11 5 -11 10 0 6 2 10 4
10 3 0 8 -4 11 -10z m-580 -60 c3 -5 1 -10 -4 -10 -6 0 -11 5 -11 10 0 6 2 10
4 10 3 0 8 -4 11 -10z m630 -18 c-3 -3 -11 0 -18 7 -9 10 -8 11 6 5 10 -3 15
-9 12 -12z m-775 -38 c0 -8 -7 -14 -15 -14 -17 0 -18 2 -9 24 7 18 24 12 24
-10z m1100 -84 c0 -5 -2 -10 -4 -10 -3 0 -8 5 -11 10 -3 6 -1 10 4 10 6 0 11
-4 11 -10z m-955 -20 c3 -5 1 -10 -4 -10 -6 0 -11 5 -11 10 0 6 2 10 4 10 3 0
8 -4 11 -10z m244 -64 c55 -35 64 -42 106 -85 21 -21 38 -30 46 -26 7 5 10 4
6 -2 -9 -14 22 -55 35 -47 7 4 8 2 4 -5 -4 -6 2 -24 13 -40 20 -27 28 -80 15
-93 -10 -11 -76 11 -115 38 -34 23 -42 25 -51 13 -8 -12 -9 -12 -5 1 4 16 -52
72 -65 64 -4 -3 -8 0 -8 7 0 13 -66 90 -72 84 -2 -2 -5 5 -5 17 -1 12 -6 24
-12 27 -19 12 -30 58 -18 74 26 32 40 29 126 -27z m-192 2 c-3 -8 -6 -5 -6 6
-1 11 2 17 5 13 3 -3 4 -12 1 -19z m2037 -14 c4 -9 5 -19 2 -21 -8 -8 -47 18
-41 28 10 15 32 11 39 -7z m-1730 -40 c3 -8 2 -12 -4 -9 -6 3 -10 10 -10 16 0
14 7 11 14 -7z m53 -20 c-9 -9 -28 6 -21 18 4 6 10 6 17 -1 6 -6 8 -13 4 -17z
m618 -74 l180 -71 98 -112 c53 -62 133 -150 176 -197 43 -47 75 -86 70 -88 -5
-2 -94 24 -198 58 l-189 61 -62 74 c-33 41 -67 80 -73 87 -13 13 -143 172
-184 224 -25 31 -30 49 -10 41 6 -3 93 -37 192 -77z m75 40 c0 -5 -7 -7 -15
-4 -8 4 -15 8 -15 10 0 2 7 4 15 4 8 0 15 -4 15 -10z m888 -37 c27 -27 76 -73
109 -104 33 -31 63 -67 65 -80 62 -286 108 -572 95 -585 -6 -6 -216 195 -228
217 -5 10 -18 62 -29 116 -22 108 -87 349 -101 373 -18 32 -9 -17 27 -140 33
-114 74 -289 74 -314 0 -5 -11 1 -24 13 -15 14 -29 43 -36 75 -18 86 -92 340
-103 351 -15 16 -4 -36 42 -190 54 -184 53 -193 -7 -130 -40 41 -53 65 -76
138 -15 48 -31 87 -36 87 -5 0 -15 3 -24 6 -9 3 -16 1 -16 -5 0 -6 8 -11 18
-11 13 0 21 -13 30 -45 7 -25 12 -53 12 -62 0 -17 -7 -11 -76 69 -18 20 -44
42 -58 50 l-27 14 95 57 c52 31 97 57 100 57 3 0 14 7 24 15 64 55 88 74 94
75 4 0 30 -21 56 -47z m-1546 20 c-6 -2 -9 -10 -6 -15 4 -7 2 -8 -4 -4 -18 11
-14 26 6 25 10 0 12 -3 4 -6z m-737 -93 c30 -22 55 -43 55 -46 0 -3 -22 7 -49
21 l-49 27 -108 -47 c-370 -160 -508 -285 -570 -515 -37 -138 -19 -397 47
-680 50 -218 55 -235 67 -255 11 -20 11 -20 12 1 0 12 -6 44 -14 70 -18 63
-71 352 -87 471 -15 121 -6 372 15 431 65 176 180 287 406 394 52 25 126 58
163 73 l68 29 24 -30 23 -29 -90 -27 c-257 -79 -397 -164 -483 -294 -107 -161
-118 -378 -39 -774 40 -201 56 -262 70 -259 11 2 10 5 -22 169 -36 182 -57
356 -58 489 -1 74 1 84 17 87 15 2 18 -2 13 -19 -19 -68 -19 -70 -6 -62 10 6
12 4 7 -9 -17 -44 84 -593 122 -664 11 -20 18 -22 69 -17 31 2 72 9 90 14 19
6 43 6 55 2 12 -5 44 -4 72 2 28 5 76 10 108 10 31 1 57 5 57 10 0 5 6 7 14 4
8 -3 16 2 19 13 7 26 -8 44 -29 36 -17 -6 -17 -6 0 13 14 15 26 19 45 14 34
-8 34 -8 21 -32 -7 -14 -7 -21 0 -21 5 0 10 -7 10 -15 0 -13 30 -14 223 -8
122 3 224 7 226 9 15 14 -32 19 -180 22 -93 2 -169 7 -169 12 0 4 10 14 23 22
18 13 106 16 523 20 l501 6 44 -40 44 -39 -357 6 c-198 4 -358 3 -358 -1 0 -5
156 -10 348 -12 191 -2 361 -7 378 -13 30 -9 72 -45 63 -53 -2 -1 -161 1 -353
6 -511 13 -1042 -12 -1337 -62 -30 -6 -71 -10 -90 -10 -19 0 -40 -5 -46 -11
-23 -23 -45 -4 -63 51 -13 39 -18 48 -19 29 -1 -14 4 -40 10 -58 9 -27 8 -35
-6 -51 -10 -11 -24 -20 -30 -20 -7 0 -15 -7 -19 -15 -3 -8 -17 -15 -30 -15
-20 0 -27 6 -31 28 -4 15 -15 54 -25 87 -19 59 -79 351 -100 482 -31 191 -29
402 4 514 59 197 208 334 536 493 85 41 159 75 163 75 4 1 32 -17 62 -39z
m828 25 c-3 -9 -8 -14 -10 -11 -3 3 -2 9 2 15 9 16 15 13 8 -4z m20 -60 c-3
-9 -8 -14 -10 -11 -3 3 -2 9 2 15 9 16 15 13 8 -4z m-787 -37 c60 -42 72 -68
18 -40 -41 21 -95 72 -77 72 6 0 32 -15 59 -32z m1564 11 c0 -6 -4 -7 -10 -4
-5 3 -10 11 -10 16 0 6 5 7 10 4 6 -3 10 -11 10 -16z m-740 1 c0 -5 -2 -10 -4
-10 -3 0 -8 5 -11 10 -3 6 -1 10 4 10 6 0 11 -4 11 -10z m63 -41 c-6 -6 -18
-6 -28 -3 -18 7 -18 8 1 14 23 9 39 1 27 -11z m-263 7 c0 -3 -4 -8 -10 -11 -5
-3 -10 -1 -10 4 0 6 5 11 10 11 6 0 10 -2 10 -4z m-645 -25 c0 -10 -31 -22
-95 -38 -107 -26 -138 -26 -64 1 27 9 57 21 66 27 10 5 27 9 38 9 11 0 20 5
20 11 0 6 8 9 18 7 9 -2 17 -10 17 -17z m110 -49 c-9 -9 -71 19 -83 38 -11 18
-7 17 38 -7 27 -15 48 -29 45 -31z m1525 48 c0 -5 -2 -10 -4 -10 -3 0 -8 5
-11 10 -3 6 -1 10 4 10 6 0 11 -4 11 -10z m-1566 -56 c109 -43 102 -50 -47
-50 -106 1 -139 -3 -167 -17 -25 -12 -28 -16 -10 -12 66 16 172 23 240 18 87
-7 80 -1 215 -174 154 -196 351 -416 572 -638 117 -118 210 -217 207 -220 -3
-3 -353 -9 -777 -13 -425 -4 -786 -10 -804 -13 -31 -7 -31 -7 -42 46 -20 103
-40 245 -51 371 -35 392 84 576 445 688 55 17 105 33 110 35 24 8 49 3 109
-21z m1631 -12 c-3 -3 -11 0 -18 7 -9 10 -8 11 6 5 10 -3 15 -9 12 -12z
m-1972 -19 c-7 -2 -19 -2 -25 0 -7 3 -2 5 12 5 14 0 19 -2 13 -5z m1220 -88
c-7 -21 -13 -19 -13 6 0 11 4 18 10 14 5 -3 7 -12 3 -20z m-1388 -7 c-11 -6
-22 -14 -25 -18 -9 -13 -52 -32 -57 -26 -3 3 2 9 12 13 10 3 27 15 37 25 10
10 26 18 36 18 15 -1 14 -2 -3 -12z m2310 -68 c3 -5 1 -10 -4 -10 -6 0 -11 5
-11 10 0 6 2 10 4 10 3 0 8 -4 11 -10z m-2385 -4 c0 -2 -12 -11 -27 -20 l-28
-17 24 20 c23 21 31 25 31 17z m2070 -16 c12 -8 11 -10 -7 -10 -13 0 -23 5
-23 10 0 13 11 13 30 0z m-425 -20 c3 -5 1 -10 -4 -10 -6 0 -11 5 -11 10 0 6
2 10 4 10 3 0 8 -4 11 -10z m-1701 -39 c3 -5 -7 -17 -22 -26 -27 -18 -27 -18
-9 2 9 11 14 23 10 26 -3 4 -1 7 5 7 6 0 13 -4 16 -9z m2181 -12 c11 -17 -1
-21 -15 -4 -8 9 -8 15 -2 15 6 0 14 -5 17 -11z m644 -53 c10 -12 8 -13 -8 -9
-12 3 -21 9 -21 14 0 14 16 11 29 -5z m-2865 -38 c-5 -7 -9 -28 -10 -46 0 -18
-8 -41 -17 -50 -16 -15 -17 -15 -17 5 0 12 5 25 11 28 6 4 8 14 5 22 -3 8 1
24 9 37 8 12 14 25 12 28 -2 3 0 2 6 -2 5 -5 6 -14 1 -22z m2281 22 c3 -5 2
-10 -4 -10 -5 0 -13 5 -16 10 -3 6 -2 10 4 10 5 0 13 -4 16 -10z m515 -36 c91
-25 170 -49 177 -53 6 -3 64 -56 130 -117 65 -60 142 -132 171 -158 28 -27 52
-52 52 -55 0 -4 -72 11 -161 32 -133 33 -163 37 -170 26 -6 -11 -17 -6 -46 22
-21 20 -49 45 -62 57 -14 12 -22 24 -19 27 3 3 68 -10 144 -30 141 -36 184
-42 184 -26 0 11 -29 21 -170 57 -141 36 -161 39 -170 25 -5 -9 -16 -4 -39 15
-17 14 -30 28 -28 30 2 2 46 -8 98 -22 104 -29 207 -53 227 -54 8 0 12 5 10
12 -4 12 -62 35 -108 43 -24 4 -65 15 -173 46 -41 11 -49 11 -57 -1 -6 -10
-29 7 -94 74 -47 49 -86 90 -86 92 0 9 34 1 190 -42z m-235 16 c3 -5 2 -10 -4
-10 -5 0 -13 5 -16 10 -3 6 -2 10 4 10 5 0 13 -4 16 -10z m-645 -40 c-6 -11
-16 -20 -23 -19 -9 0 -9 2 1 6 6 2 12 11 12 19 0 8 5 14 10 14 7 0 7 -6 0 -20z
m430 -12 c0 -6 -6 -5 -15 2 -8 7 -15 14 -15 16 0 2 7 1 15 -2 8 -4 15 -11 15
-16z m280 -18 c0 -5 -2 -10 -4 -10 -3 0 -8 5 -11 10 -3 6 -1 10 4 10 6 0 11
-4 11 -10z m-215 -50 c3 -5 2 -10 -4 -10 -5 0 -13 5 -16 10 -3 6 -2 10 4 10 5
0 13 -4 16 -10z m275 -10 c0 -5 -2 -10 -4 -10 -3 0 -8 5 -11 10 -3 6 -1 10 4
10 6 0 11 -4 11 -10z m-200 -60 c0 -5 -4 -10 -9 -10 -6 0 -13 5 -16 10 -3 6 1
10 9 10 9 0 16 -4 16 -10z m270 -10 c0 -5 -4 -10 -9 -10 -6 0 -13 5 -16 10 -3
6 1 10 9 10 9 0 16 -4 16 -10z m-640 -50 c0 -5 -2 -10 -4 -10 -3 0 -8 5 -11
10 -3 6 -1 10 4 10 6 0 11 -4 11 -10z m454 -9 c4 -5 -3 -7 -14 -4 -23 6 -26
13 -6 13 8 0 17 -4 20 -9z m261 -11 c8 -13 -5 -13 -25 0 -13 8 -13 10 2 10 9
0 20 -4 23 -10z m-685 -20 c0 -5 -2 -10 -4 -10 -3 0 -8 5 -11 10 -3 6 -1 10 4
10 6 0 11 -4 11 -10z m749 -54 c-3 -3 -16 -2 -29 1 -22 6 -22 7 -4 14 18 6 43
-5 33 -15z m-702 -18 c-3 -8 -6 -5 -6 6 -1 11 2 17 5 13 3 -3 4 -12 1 -19z
m631 -33 c102 -25 190 -49 197 -53 7 -4 62 -52 121 -108 60 -56 147 -134 194
-175 121 -105 166 -149 155 -149 -5 0 -101 17 -212 38 l-202 39 -113 105
c-141 132 -348 336 -348 343 0 9 22 5 208 -40z m360 -6 c137 -32 149 -34 154
-18 2 7 16 1 33 -14 17 -14 28 -28 25 -31 -12 -11 -376 75 -394 94 -13 14 4
11 182 -31z m-13 -89 c3 -5 -1 -10 -9 -10 -8 0 -18 5 -21 10 -3 6 1 10 9 10 8
0 18 -4 21 -10z m-805 -20 c0 -5 -4 -10 -10 -10 -5 0 -10 5 -10 10 0 6 5 10
10 10 6 0 10 -4 10 -10z m893 3 c-7 -2 -19 -2 -25 0 -7 3 -2 5 12 5 14 0 19
-2 13 -5z m-23 -53 c0 -5 -2 -10 -4 -10 -3 0 -8 5 -11 10 -3 6 -1 10 4 10 6 0
11 -4 11 -10z m-810 -16 c0 -8 -5 -12 -10 -9 -6 4 -8 11 -5 16 9 14 15 11 15
-7z m1354 -24 c87 -17 162 -30 166 -30 9 0 122 -81 118 -85 -2 -2 -74 9 -161
24 -126 22 -159 25 -165 15 -6 -10 -15 -7 -40 12 -34 27 -45 51 -14 34 29 -16
296 -60 306 -50 14 14 -27 27 -178 54 -106 19 -143 23 -153 14 -11 -9 -20 -5
-41 15 -33 34 -34 34 162 -3z m-214 -10 c12 -8 11 -10 -7 -10 -13 0 -23 5 -23
10 0 13 11 13 30 0z m77 -66 c-3 -3 -12 -4 -19 -1 -8 3 -5 6 6 6 11 1 17 -2
13 -5z m-262 -14 c3 -5 1 -10 -4 -10 -6 0 -11 5 -11 10 0 6 2 10 4 10 3 0 8
-4 11 -10z m537 -34 c80 -13 143 -19 152 -14 10 6 34 -6 80 -39 36 -27 65 -51
66 -54 0 -4 -21 -3 -47 1 -227 37 -275 43 -283 31 -5 -9 -21 -1 -54 28 -26 23
-56 46 -67 51 -24 13 -26 35 -1 25 9 -4 79 -17 154 -29z m-1366 -24 c-4 -3
-14 2 -24 12 -16 18 -16 18 6 6 13 -6 21 -14 18 -18z m1169 8 c3 -5 -1 -10 -9
-10 -9 0 -16 5 -16 10 0 6 4 10 9 10 6 0 13 -4 16 -10z m-255 -26 c0 -14 -3
-14 -15 -4 -8 7 -15 14 -15 16 0 2 7 4 15 4 8 0 15 -7 15 -16z m-3360 -34 c0
-5 -4 -10 -10 -10 -5 0 -10 5 -10 10 0 6 5 10 10 10 6 0 10 -4 10 -10z m624 2
c8 -14 -32 -42 -59 -42 -33 0 -32 11 3 32 30 19 48 22 56 10z m3076 -14 c0
-13 -23 -5 -28 10 -2 7 2 10 12 6 9 -3 16 -11 16 -16z m-3270 4 c0 -11 -41
-34 -48 -27 -4 4 2 13 12 21 22 15 36 18 36 6z m-320 -6 c0 -2 -7 -7 -16 -10
-8 -3 -12 -2 -9 4 6 10 25 14 25 6z m50 -11 c-7 -8 -17 -15 -22 -15 -6 0 -5 7
2 15 7 8 17 15 22 15 6 0 5 -7 -2 -15z m3795 -20 c61 -8 122 -17 138 -20 20
-3 27 0 27 11 0 12 9 9 40 -13 22 -15 40 -32 40 -37 0 -5 -6 -4 -12 1 -7 6
-56 16 -108 22 -52 7 -119 17 -149 22 -38 6 -58 5 -68 -2 -13 -11 -24 -6 -60
28 -20 18 -15 23 15 13 15 -5 77 -16 137 -25z m-515 15 c0 -5 -7 -7 -15 -4 -8
4 -15 8 -15 10 0 2 7 4 15 4 8 0 15 -4 15 -10z m335 -40 c8 -13 -5 -13 -25 0
-13 8 -13 10 2 10 9 0 20 -4 23 -10z m275 -39 c94 -13 141 -16 154 -9 14 8 23
5 40 -12 l21 -22 -70 7 c-38 4 -77 9 -85 10 -8 1 -40 6 -70 10 -30 3 -63 9
-72 11 -21 6 -26 -24 -5 -31 10 -3 202 -28 292 -38 13 -1 20 4 19 15 -1 14 5
12 39 -10 l41 -27 -30 -3 c-17 -2 -100 6 -186 17 -155 19 -155 19 -211 62 -32
23 -57 44 -57 46 0 2 10 1 23 -2 12 -3 83 -14 157 -24z m-503 13 c-3 -3 -12
-4 -19 -1 -8 3 -5 6 6 6 11 1 17 -2 13 -5z m-362 -19 c48 -13 48 -14 9 -9 -24
3 -45 1 -48 -5 -7 -11 -46 7 -46 21 0 11 26 8 85 -7z m-565 -5 c0 -5 -7 -10
-15 -10 -8 0 -15 5 -15 10 0 6 7 10 15 10 8 0 15 -4 15 -10z m1117 -6 c-3 -3
-12 -4 -19 -1 -8 3 -5 6 6 6 11 1 17 -2 13 -5z m123 -16 c0 -6 -7 -7 -16 -4
-9 3 -28 7 -42 7 -27 1 -27 1 3 8 34 8 55 4 55 -11z m-481 -8 c62 -11 116 -22
119 -25 3 -3 1 -5 -4 -5 -21 0 -248 41 -253 45 -8 9 21 5 138 -15z m-159 -46
c0 -16 -26 -8 -33 11 -4 9 1 11 14 8 10 -3 19 -11 19 -19z m360 -44 c0 -5 -7
-7 -15 -4 -8 4 -15 8 -15 10 0 2 7 4 15 4 8 0 15 -4 15 -10z m-276 -25 c4 -13
2 -14 -14 -5 -23 13 -26 20 -6 20 8 0 16 -7 20 -15z m351 -35 c3 -5 -1 -10 -9
-10 -9 0 -16 5 -16 10 0 6 4 10 9 10 6 0 13 -4 16 -10z m-197 -35 c12 -11 -83
-8 -97 2 -13 11 -7 12 39 7 30 -4 56 -8 58 -9z m301 -42 c2 -2 -10 -3 -29 -3
-28 0 -31 2 -20 15 10 12 16 13 29 3 9 -7 18 -14 20 -15z m-289 -23 c8 -5 11
-12 8 -15 -4 -4 -17 0 -30 9 -24 17 -5 23 22 6z m370 -40 c12 -8 11 -10 -7
-10 -13 0 -23 5 -23 10 0 13 11 13 30 0z m-1578 -16 c21 -7 21 -8 -9 -14 -18
-4 -72 -8 -120 -9 -95 -2 -821 -37 -968 -47 -166 -10 -639 -55 -750 -70 -212
-29 -241 -33 -358 -54 -134 -23 -145 -24 -131 -12 25 23 186 51 499 87 66 8
176 21 245 30 285 35 827 74 1169 83 140 4 287 8 327 10 41 2 84 0 96 -4z
m1298 -24 c0 -5 -4 -10 -9 -10 -6 0 -13 5 -16 10 -3 6 1 10 9 10 9 0 16 -4 16
-10z m-1191 -43 c30 -18 32 -21 15 -27 -10 -4 -113 -10 -229 -14 -115 -4 -230
-9 -255 -11 -25 -1 -106 -6 -180 -9 -74 -4 -162 -9 -195 -11 -33 -3 -105 -7
-160 -10 -307 -18 -783 -64 -1080 -105 -276 -39 -296 -43 -290 -58 3 -7 5 -19
6 -25 0 -7 4 -2 9 9 9 24 26 28 170 44 52 6 102 12 110 15 34 10 514 60 815
85 66 5 201 14 300 20 99 6 216 12 260 15 263 15 696 37 730 38 33 0 57 -10
125 -55 47 -30 115 -74 153 -97 37 -24 67 -47 67 -52 0 -5 8 -9 19 -9 39 0 43
-21 32 -152 -5 -68 -13 -166 -16 -218 -3 -52 -8 -121 -11 -152 -7 -66 14 -59
-229 -83 -171 -18 -863 -106 -1065 -136 -74 -11 -169 -24 -210 -29 -41 -5
-106 -14 -145 -20 -38 -6 -89 -12 -112 -15 -24 -2 -107 -11 -185 -19 -79 -9
-225 -23 -324 -31 -100 -8 -228 -24 -285 -36 -57 -12 -111 -22 -119 -23 -16
-1 -15 -7 -39 321 -13 174 -38 333 -81 529 -17 75 -29 138 -28 139 2 1 50 9
108 19 58 9 130 21 160 26 160 27 655 83 845 95 50 3 142 10 205 15 116 10
391 26 620 36 69 3 184 9 255 14 153 9 188 6 234 -23z m-3342 17 c-3 -3 -12
-4 -19 -1 -8 3 -5 6 6 6 11 1 17 -2 13 -5z m4898 -4 c8 -13 -5 -13 -25 0 -13
8 -13 10 2 10 9 0 20 -4 23 -10z m-4842 -7 c-7 -2 -19 -2 -25 0 -7 3 -2 5 12
5 14 0 19 -2 13 -5z m87 -13 c20 -6 21 -8 5 -8 -11 0 -33 4 -50 8 -27 7 -27 8
-5 8 14 0 36 -4 50 -8z m4639 -26 c79 -8 152 -13 163 -11 22 6 48 -1 48 -13 0
-8 -29 -6 -240 16 -80 9 -152 20 -160 26 -11 6 -6 7 15 4 17 -3 95 -13 174
-22z m-669 -34 c0 -5 -4 -10 -10 -10 -5 0 -10 5 -10 10 0 6 5 10 10 10 6 0 10
-4 10 -10z m-251 -794 c9 -8 73 -52 143 -97 201 -133 247 -162 302 -194 29
-16 77 -46 107 -66 87 -57 490 -297 671 -400 92 -52 167 -97 168 -100 0 -3
-51 -11 -112 -18 -62 -7 -144 -18 -183 -26 -70 -13 -70 -13 -108 13 -67 47
-336 221 -517 335 -96 60 -187 118 -202 128 -14 11 -32 19 -38 19 -20 0 9 -29
49 -50 20 -10 45 -28 56 -40 17 -20 13 -19 -25 6 -62 40 -93 38 -516 -30 -488
-78 -1023 -168 -1214 -205 -58 -11 -171 -32 -252 -47 -82 -15 -146 -29 -144
-32 5 -4 137 17 312 50 l110 22 42 -34 c23 -18 40 -36 37 -38 -3 -3 -42 -13
-86 -23 l-82 -18 -36 25 c-46 31 -65 31 -26 0 36 -29 36 -29 -95 -55 l-94 -19
-45 24 c-25 13 -50 24 -55 24 -25 0 351 -251 572 -381 78 -46 142 -87 142 -91
0 -15 -44 -8 -64 11 -23 21 -219 151 -378 250 -173 108 -390 263 -381 271 4 5
49 16 98 24 50 8 142 24 205 36 201 37 773 135 875 151 447 67 1051 179 967
179 -94 0 -1113 -159 -1582 -246 -74 -14 -184 -34 -245 -45 -60 -11 -166 -30
-234 -42 -76 -14 -126 -27 -129 -35 -5 -16 58 -75 141 -133 151 -105 315 -213
485 -318 100 -63 181 -115 179 -117 -1 -2 -85 -21 -185 -44 l-182 -41 -193
122 c-277 177 -568 377 -932 639 -199 144 -273 199 -279 209 -7 10 12 14 174
36 69 9 305 41 525 71 220 30 429 56 464 59 35 3 67 8 72 11 5 2 64 12 131 21
68 8 152 19 188 24 36 5 80 11 98 13 18 2 48 7 65 10 30 5 308 36 329 36 5 0
6 -5 2 -12 -5 -8 0 -9 17 -5 13 4 148 25 299 47 329 48 472 73 446 78 -10 2
-68 -1 -130 -7 -162 -16 -187 -12 -66 9 58 11 143 30 190 44 100 29 128 31
149 12z m-3965 -37 c92 -34 343 -111 538 -165 25 -7 57 -19 70 -27 12 -8 50
-23 83 -32 33 -10 69 -21 80 -26 38 -17 140 -50 195 -65 97 -24 207 -19 435
22 53 10 378 55 460 64 77 9 144 19 285 41 79 13 135 20 360 48 96 11 225 28
285 37 120 17 124 18 365 39 239 21 356 28 350 22 -3 -3 -50 -10 -105 -16
-357 -40 -537 -62 -586 -71 -30 -5 -71 -10 -91 -10 -19 0 -48 -4 -64 -10 -24
-8 -144 -24 -269 -35 -56 -6 -369 -45 -435 -55 -36 -5 -171 -23 -300 -40 -472
-61 -690 -95 -690 -109 0 -27 309 -263 710 -545 153 -107 501 -332 590 -382
55 -31 103 -60 105 -65 3 -4 -8 -10 -25 -14 -25 -6 -47 4 -147 68 -65 41 -163
103 -218 137 -218 137 -511 335 -735 495 -129 92 -274 193 -322 224 -48 31
-87 62 -88 69 0 6 -6 12 -13 12 -8 0 -81 22 -163 50 -82 27 -157 50 -167 50
-10 0 -32 8 -50 17 -18 9 -48 20 -67 24 -41 9 -113 33 -190 65 -30 12 -82 30
-115 39 -33 9 -73 23 -88 31 -16 8 -37 14 -48 14 -10 0 -38 9 -61 20 -24 11
-76 29 -116 41 -40 12 -70 24 -67 27 5 6 167 49 189 51 5 1 58 -17 120 -40z
m-164 -85 c141 -45 216 -71 350 -121 36 -14 94 -33 130 -43 36 -11 128 -42
205 -71 77 -28 172 -60 210 -71 39 -11 79 -28 90 -37 11 -10 103 -78 205 -151
102 -74 234 -169 293 -212 196 -142 562 -380 870 -566 80 -48 123 -82 168
-133 l60 -68 -28 -17 c-15 -9 -95 -61 -178 -115 -155 -101 -284 -169 -320
-169 -31 0 -209 62 -530 185 -33 12 -91 33 -130 45 -86 28 -187 66 -240 90
-51 23 -523 199 -1070 400 -132 48 -257 95 -277 103 l-38 16 0 458 0 457 32
33 c18 18 37 33 42 33 6 0 76 -21 156 -46z m981 -125 c28 -15 13 -31 -16 -17
-25 11 -34 28 -14 28 6 0 19 -5 30 -11z m3427 -246 c16 -16 51 -39 76 -53 26
-14 54 -33 63 -42 9 -10 20 -18 26 -18 17 0 127 -72 122 -80 -3 -5 -28 -13
-56 -19 -49 -11 -53 -10 -110 25 -32 19 -59 38 -59 40 0 3 10 9 23 14 19 9 17
10 -13 6 -26 -3 -48 4 -88 28 -30 18 -50 36 -47 43 2 8 -4 13 -16 13 -21 0
-69 27 -69 40 0 4 24 12 53 17 28 6 55 11 58 12 4 0 20 -11 37 -26z m-146 -20
c10 -9 18 -19 18 -24 0 -10 -125 -30 -144 -23 -9 3 -16 2 -16 -3 0 -6 -30 -15
-67 -21 -61 -10 -68 -9 -95 10 -16 11 -26 24 -21 28 4 5 44 13 88 19 44 6 98
15 120 20 63 14 97 12 117 -6z m-334 -49 c38 -26 27 -40 -46 -53 -37 -7 -75
-9 -85 -5 -9 3 -17 2 -17 -3 0 -5 -28 -15 -61 -21 -57 -10 -64 -10 -100 11
-64 36 -63 37 121 62 63 9 117 18 119 21 10 9 48 3 69 -12z m427 -26 c25 -18
42 -35 37 -40 -4 -4 -32 -10 -63 -14 -50 -6 -60 -4 -97 21 -23 15 -42 31 -42
36 0 7 66 26 102 28 10 1 38 -13 63 -31z m-156 -25 c20 -14 38 -28 41 -30 10
-9 -27 -22 -82 -28 -53 -6 -62 -5 -93 19 -19 15 -35 31 -35 35 0 8 73 27 114
30 11 0 35 -11 55 -26z m-611 -16 c12 -11 22 -23 22 -27 0 -7 -114 -30 -150
-30 -13 0 -33 8 -44 18 -20 16 -20 16 -7 -1 19 -24 12 -28 -68 -42 l-69 -12
-38 32 -38 32 29 6 c17 4 66 11 110 17 44 6 109 17 145 24 70 13 74 13 108
-17z m434 -14 c18 -15 35 -29 38 -31 11 -8 -29 -21 -86 -27 -55 -6 -66 -4 -93
16 -17 12 -31 28 -31 35 0 10 62 26 127 33 6 0 26 -11 45 -26z m-168 -42 c25
-28 14 -38 -50 -46 -45 -6 -53 -4 -82 20 -18 15 -32 30 -32 35 0 11 112 28
130 19 8 -4 24 -17 34 -28z m636 7 c27 -18 50 -36 50 -40 0 -6 -87 -28 -111
-28 -8 0 -83 46 -108 67 -8 6 8 15 41 23 58 14 77 11 128 -22z m-1285 -18 c16
-16 27 -32 24 -34 -2 -2 -44 -10 -92 -18 l-88 -15 -40 29 c-23 16 -38 32 -35
35 7 8 130 30 172 32 21 1 38 -8 59 -29z m470 -11 c20 -18 34 -34 31 -36 -12
-12 -150 -32 -165 -24 -22 12 -55 50 -49 56 4 4 111 30 140 34 4 1 23 -13 43
-30z m657 0 c26 -17 48 -35 48 -39 0 -10 -31 -18 -100 -25 -51 -6 -58 -4 -92
25 -21 17 -38 35 -38 40 0 7 74 26 114 29 11 0 41 -13 68 -30z m-1347 -24 c19
-18 30 -37 25 -40 -5 -3 -44 -11 -87 -17 -74 -10 -80 -10 -115 12 -47 27 -48
47 -5 55 28 5 116 20 140 24 4 0 23 -15 42 -34z m1793 0 c29 -20 50 -40 47
-45 -4 -6 4 -10 16 -10 24 0 89 -37 89 -50 0 -5 -29 -12 -64 -15 -58 -6 -68
-5 -98 16 l-32 24 39 12 40 13 -54 -5 c-47 -4 -58 -1 -98 26 -24 17 -41 34
-38 37 7 7 72 29 90 31 6 1 34 -15 63 -34z m-632 -7 c24 -17 44 -35 44 -39 0
-11 -31 -20 -95 -25 -56 -5 -62 -4 -98 26 -21 18 -35 35 -32 39 5 5 81 22 128
30 5 0 29 -13 53 -31z m-663 -3 c15 -13 27 -28 27 -34 0 -5 -31 -14 -70 -21
-68 -11 -70 -11 -105 16 -19 15 -33 30 -30 33 7 7 101 28 130 30 11 0 32 -11
48 -24z m1136 -20 c22 -13 42 -28 45 -33 3 -5 -22 -14 -56 -20 -56 -10 -63 -9
-99 11 -21 12 -39 27 -39 33 0 10 46 24 103 33 4 0 25 -10 46 -24z m-1314 -25
c25 -27 16 -33 -80 -49 -74 -12 -75 -12 -110 15 -20 15 -33 30 -30 33 12 12
170 38 185 30 8 -4 24 -17 35 -29z m653 10 c17 -16 32 -34 32 -39 0 -5 -27
-12 -61 -16 -59 -7 -62 -6 -95 26 -37 36 -35 45 11 52 65 9 81 6 113 -23z
m-172 -26 c19 -15 33 -32 31 -38 -2 -6 -37 -16 -78 -22 l-74 -11 -38 30 c-20
17 -34 34 -30 38 8 8 92 26 131 28 13 0 39 -11 58 -25z m678 5 c20 -12 36 -25
36 -29 0 -8 -108 -30 -144 -30 -19 0 -76 37 -76 49 0 8 79 27 122 30 15 0 43
-8 62 -20z m-1385 -19 c19 -16 32 -32 28 -36 -3 -3 -40 -13 -82 -21 -75 -14
-76 -14 -103 9 -15 13 -30 28 -32 33 -4 7 103 38 150 44 3 0 20 -13 39 -29z
m510 -24 c37 -38 35 -41 -29 -51 -25 -3 -53 -9 -62 -11 -17 -5 -93 54 -83 65
5 5 94 25 131 30 5 0 25 -14 43 -33z m677 13 c54 -33 48 -39 -59 -58 -53 -10
-61 -9 -88 11 -16 12 -28 27 -26 32 3 9 67 25 131 35 5 0 24 -8 42 -20z m475
-10 c16 -11 29 -24 29 -28 0 -5 -28 -13 -62 -19 -56 -9 -66 -8 -96 10 -38 23
-33 33 23 47 61 14 75 13 106 -10z m-1852 -19 c19 -16 33 -31 30 -34 -2 -2
-40 -11 -83 -20 l-79 -16 -33 25 c-19 15 -34 30 -34 35 0 5 26 14 58 20 31 6
62 13 67 15 24 8 42 2 74 -25z m513 -17 c15 -15 28 -30 28 -33 0 -4 -38 -12
-84 -19 -89 -13 -106 -10 -140 27 -18 20 -17 21 21 31 112 28 140 28 175 -6z
m673 2 c33 -27 30 -29 -50 -44 -42 -8 -53 -6 -77 11 -39 27 -36 46 10 51 75 8
88 6 117 -18z m510 -9 c20 -14 20 -15 -7 -25 -14 -5 -52 -13 -85 -16 -50 -6
-62 -4 -83 13 -14 11 -22 23 -19 27 12 11 144 32 159 24 8 -4 24 -14 35 -23z
m441 -3 c27 -14 51 -28 54 -30 10 -9 -28 -23 -77 -29 -48 -6 -57 -3 -105 27
l-52 34 40 12 c60 18 87 15 140 -14z m-2344 -9 c58 -41 60 -39 -76 -70 -74
-17 -80 -17 -110 0 -43 23 -70 45 -65 50 5 5 173 43 198 45 8 1 32 -11 53 -25z
m2438 -16 c0 -15 -26 -7 -55 17 l-30 25 42 -17 c24 -10 43 -21 43 -25z m-1223
10 c13 -12 23 -25 23 -29 0 -3 -36 -12 -80 -19 -77 -12 -80 -12 -109 11 -16
13 -30 27 -30 31 -1 8 89 25 138 27 23 1 43 -6 58 -21z m1643 10 c0 -6 14 -33
31 -60 17 -27 30 -50 28 -52 -2 -2 -101 -20 -219 -40 -166 -29 -1427 -279
-1920 -382 -41 -9 -196 -41 -345 -71 -527 -106 -483 -99 -508 -83 -27 18 -112
109 -106 114 9 9 874 179 1174 231 244 42 567 104 770 146 467 98 1025 206
1078 208 9 1 17 -4 17 -11z m-2350 -25 c30 -25 31 -27 12 -34 -11 -4 -51 -11
-88 -14 -65 -7 -70 -6 -93 19 -14 14 -22 28 -19 31 7 8 86 23 125 24 21 1 42
-8 63 -26z m1194 3 c15 -13 24 -26 20 -28 -5 -3 -44 -11 -87 -18 -76 -13 -78
-12 -102 10 -14 13 -22 26 -19 29 5 6 113 28 144 29 8 1 28 -9 44 -22z m486
-3 c27 -16 48 -32 47 -38 -2 -5 -38 -16 -79 -24 l-75 -14 -42 33 c-22 18 -39
35 -36 38 5 5 102 30 122 31 7 1 35 -11 63 -26z m-1180 -19 c31 -31 20 -40
-63 -49 -52 -6 -61 -5 -83 16 -13 12 -24 26 -24 30 0 7 79 26 121 28 16 1 35
-9 49 -25z m-694 -10 c19 -15 33 -29 31 -31 -2 -2 -37 -10 -78 -18 -72 -13
-75 -13 -106 8 -50 34 -48 36 57 56 25 5 49 9 53 10 5 1 24 -11 43 -25z m1175
-5 c16 -11 27 -24 24 -29 -3 -5 -34 -12 -70 -15 -52 -6 -70 -4 -91 9 -33 22
-26 39 17 47 64 12 91 9 120 -12z m526 -10 c53 -37 50 -41 -54 -59 l-71 -13
-42 33 c-22 18 -38 35 -35 39 8 7 100 28 133 30 13 0 44 -13 69 -30z m-1193
-8 c32 -33 30 -35 -59 -46 -27 -4 -57 -9 -66 -11 -16 -5 -79 40 -79 56 0 7 98
25 156 29 11 0 33 -12 48 -28z m-703 -12 c16 -11 29 -24 29 -27 0 -8 -153 -42
-184 -42 -10 0 -33 11 -53 25 -42 28 -42 29 72 49 107 19 103 19 136 -5z
m1189 -4 c13 -14 22 -27 19 -28 -7 -7 -121 -27 -149 -27 -15 0 -36 10 -50 25
-26 28 -24 30 50 44 80 16 105 13 130 -14z m-677 -46 c-5 -5 -41 -14 -80 -21
l-73 -12 -30 29 c-16 16 -27 31 -24 34 3 3 38 11 77 16 69 10 73 10 105 -14
18 -13 29 -28 25 -32z m1189 30 c21 -17 37 -34 34 -36 -6 -6 -124 -32 -147
-33 -18 0 -90 54 -90 67 0 9 89 30 135 32 18 1 43 -10 68 -30z m-718 -18 l29
-30 -24 -6 c-101 -24 -119 -23 -150 2 -16 14 -29 28 -29 32 0 8 82 27 126 30
11 0 33 -12 48 -28z m-662 -29 c15 -18 8 -22 -64 -34 -61 -10 -67 -9 -101 13
-20 13 -35 29 -34 34 2 6 33 15 68 21 66 11 102 2 131 -34z m1168 12 c47 -31
50 -41 13 -50 -16 -3 -44 -10 -63 -15 -63 -16 -83 -11 -113 27 -16 19 -27 37
-25 39 6 6 92 23 121 24 15 1 45 -11 67 -25z m-693 -10 c19 -15 31 -30 26 -34
-4 -4 -43 -13 -85 -19 -74 -12 -78 -11 -108 10 -17 13 -29 28 -27 34 3 8 71
23 151 34 5 0 25 -11 43 -25z m-674 -20 c21 -14 35 -29 32 -33 -2 -5 -23 -11
-46 -15 -23 -4 -40 -9 -37 -11 3 -3 29 0 59 5 51 10 56 9 93 -17 22 -16 39
-32 38 -38 0 -5 -38 -17 -83 -26 l-82 -17 -86 56 c-47 30 -97 61 -109 69 -13
8 -22 17 -19 19 7 7 137 32 172 33 17 1 47 -10 68 -25z m1172 -9 c48 -42 43
-47 -62 -65 l-75 -13 -36 36 c-20 20 -33 40 -29 43 7 7 117 31 147 33 8 0 33
-15 55 -34z m-705 -7 c17 -12 30 -25 30 -29 0 -7 -112 -29 -146 -29 -20 1 -80
47 -72 56 7 7 88 22 126 23 19 1 45 -8 62 -21z m505 -30 c25 -17 45 -35 45
-39 0 -3 -35 -12 -77 -19 -43 -7 -87 -14 -98 -17 -175 -37 -178 -37 -245 16
-34 27 -21 36 73 51 73 11 80 10 100 -7 44 -38 61 -47 34 -16 -33 35 -28 41
41 53 75 12 79 12 127 -22z m-692 0 c18 -12 34 -23 37 -25 10 -9 -27 -22 -82
-28 -54 -6 -61 -5 -99 24 -45 33 -48 29 26 44 49 11 89 6 118 -15z m315 -71
c24 -16 40 -33 35 -37 -4 -4 -51 -15 -103 -24 -52 -9 -165 -29 -250 -45 l-155
-29 -35 24 c-59 41 -74 54 -69 58 2 3 44 10 91 17 l87 13 46 -33 c55 -39 71
-36 19 4 -43 33 -36 41 50 51 39 5 60 3 71 -6 13 -11 14 -10 9 3 -6 17 1 20
91 35 55 10 53 10 113 -31z"/>
<path d="M3440 5556 c0 -22 67 -103 117 -141 44 -33 81 -49 55 -23 -17 17 -15
38 5 38 23 0 -46 72 -106 111 -49 32 -71 36 -71 15z"/>
<path d="M4130 5480 c0 -13 22 -25 95 -54 39 -16 78 -32 89 -38 10 -5 30 -12
44 -14 14 -3 33 -10 41 -15 29 -18 -50 2 -123 32 -80 33 -105 37 -87 15 19
-23 308 -135 329 -128 22 7 -5 29 -53 43 -48 14 -62 29 -20 21 19 -3 24 -1 20
9 -3 8 -69 39 -147 69 -164 64 -188 71 -188 60z"/>
<path d="M4240 5341 c0 -12 54 -37 146 -67 43 -14 85 -29 93 -34 31 -18 -6
-10 -87 20 -46 17 -87 30 -93 30 -20 0 11 -38 36 -44 20 -5 25 -11 20 -26 -8
-25 2 -30 182 -90 88 -30 151 -46 156 -41 15 15 -11 26 -223 96 -47 15 -89 32
-95 37 -5 4 13 1 40 -7 28 -9 66 -21 85 -27 19 -5 46 -16 60 -23 14 -7 37 -15
53 -19 42 -10 34 18 -10 36 -21 9 -49 21 -63 27 -23 10 -23 11 8 5 23 -4 32
-2 32 8 0 9 -50 32 -132 61 -73 27 -141 52 -150 57 -22 12 -58 13 -58 1z"/>
<path d="M4412 5138 c5 -13 297 -116 333 -117 48 -2 -18 30 -160 78 -158 54
-179 59 -173 39z"/>
<path d="M2371 3834 c0 -11 3 -14 6 -6 3 7 2 16 -1 19 -3 4 -6 -2 -5 -13z"/>
<path d="M5052 4819 c5 -16 65 -38 209 -75 128 -32 121 -31 126 -18 2 6 -4 14
-14 17 -10 3 -79 22 -153 42 -74 20 -143 40 -154 43 -13 3 -17 1 -14 -9z"/>
<path d="M5120 4750 c0 -14 25 -23 185 -64 148 -39 155 -40 155 -27 0 13 -59
35 -192 70 -126 33 -148 37 -148 21z"/>
<path d="M5320 4561 c0 -18 29 -30 150 -59 179 -43 190 -45 190 -33 0 16 -29
26 -188 66 -161 40 -152 38 -152 26z"/>
<path d="M5070 4441 c0 -6 10 -17 23 -24 28 -18 335 -92 344 -83 16 15 -24 31
-169 66 -84 20 -163 40 -175 44 -14 4 -23 3 -23 -3z"/>
<path d="M5145 4371 c-3 -6 5 -17 17 -25 34 -21 339 -89 351 -77 15 15 -18 26
-188 66 -88 20 -163 39 -167 41 -4 2 -9 0 -13 -5z"/>
<path d="M5216 4301 c-11 -18 36 -38 139 -61 55 -12 129 -28 164 -36 35 -8 66
-12 69 -9 16 16 -39 37 -178 69 -85 19 -162 37 -171 41 -10 3 -20 2 -23 -4z"/>
<path d="M5290 4220 c0 -6 12 -15 28 -21 33 -13 336 -78 341 -73 2 2 1 9 -2
17 -3 9 -68 27 -174 50 -184 41 -193 42 -193 27z"/>
<path d="M5370 4149 c0 -17 59 -36 198 -63 142 -28 172 -31 172 -17 0 16 -69
34 -298 80 -66 14 -72 14 -72 0z"/>
<path d="M5440 4080 c0 -17 38 -30 162 -54 179 -35 218 -40 218 -28 0 18 -13
22 -191 57 -191 39 -189 39 -189 25z"/>
<path d="M6210 4091 c0 -17 19 -23 168 -47 173 -28 162 -28 162 -10 0 19 -10
21 -160 46 -140 22 -170 24 -170 11z"/>
<path d="M4930 3364 c-14 -3 -381 -28 -585 -39 -49 -3 -112 -8 -140 -10 -27
-3 -120 -10 -205 -15 -323 -21 -988 -93 -1093 -118 -117 -27 -39 -26 191 2
278 35 555 63 797 81 110 8 223 17 250 20 28 3 115 10 195 15 80 6 264 19 410
30 146 11 271 20 278 20 6 0 12 5 12 10 0 9 -76 12 -110 4z"/>
<path d="M4920 3260 c-96 -10 -211 -20 -255 -24 -44 -4 -123 -11 -175 -16 -52
-6 -174 -17 -270 -25 -152 -14 -353 -36 -900 -101 -303 -36 -650 -92 -650
-105 0 -5 6 -9 13 -9 15 0 193 22 357 45 365 50 795 100 1065 125 66 6 185 17
265 25 80 8 222 22 315 30 248 21 477 45 487 51 4 3 8 9 8 15 0 12 -49 10
-260 -11z"/>
<path d="M2514 3190 c3 -14 16 -86 31 -160 14 -74 35 -223 46 -330 22 -218 32
-266 23 -115 -10 189 -60 518 -91 595 -8 23 -12 26 -9 10z"/>
<path d="M4120 3039 c-25 -4 -119 -15 -210 -23 -91 -8 -173 -18 -182 -21 -9
-4 -18 -16 -20 -28 -3 -20 -12 -23 -103 -33 -282 -32 -511 -71 -335 -57 47 4
108 7 135 8 48 0 50 -1 50 -27 -1 -16 3 -28 7 -28 4 0 99 16 210 34 212 36
284 45 608 72 226 18 230 19 204 39 -28 21 -7 31 85 40 42 4 85 11 96 16 22
10 -97 5 -270 -11 -55 -5 -140 -12 -190 -15 -80 -5 -86 -4 -57 7 19 7 34 17
34 23 -1 13 -10 14 -62 4z m-17 -46 c-7 -2 -21 -2 -30 0 -10 3 -4 5 12 5 17 0
24 -2 18 -5z m347 -3 c0 -14 -31 -18 -185 -24 l-140 -5 99 14 c179 25 226 28
226 15z m-555 -20 c-164 -23 -165 -23 -165 -5 0 11 20 15 93 18 193 6 203 5
72 -13z m213 -17 c-10 -2 -26 -2 -35 0 -10 3 -2 5 17 5 19 0 27 -2 18 -5z
m-143 -13 c-22 -4 -78 -12 -125 -19 -47 -6 -145 -23 -219 -37 -94 -18 -137
-22 -144 -15 -7 7 -7 14 -1 20 12 11 403 58 489 58 l40 0 -40 -7z"/>
<path d="M5222 3000 c0 -14 2 -19 5 -12 2 6 2 18 0 25 -3 6 -5 1 -5 -13z"/>
<path d="M4048 2803 c12 -2 32 -2 45 0 12 2 2 4 -23 4 -25 0 -35 -2 -22 -4z"/>
<path d="M3953 2793 c9 -2 25 -2 35 0 9 3 1 5 -18 5 -19 0 -27 -2 -17 -5z"/>
<path d="M3848 2783 c12 -2 32 -2 45 0 12 2 2 4 -23 4 -25 0 -35 -2 -22 -4z"/>
<path d="M3773 2773 c9 -2 25 -2 35 0 9 3 1 5 -18 5 -19 0 -27 -2 -17 -5z"/>
<path d="M5115 2703 c-16 -2 -165 -20 -330 -39 -337 -40 -1019 -128 -1108
-143 -32 -5 -103 -12 -159 -16 -56 -3 -104 -8 -107 -10 -3 -1 -181 -24 -396
-50 -214 -26 -392 -49 -394 -51 -16 -14 33 -12 225 10 300 35 625 74 709 85
39 6 129 17 200 25 292 35 569 68 720 86 88 11 201 24 250 30 167 19 440 62
450 71 9 9 -2 10 -60 2z"/>
<path d="M4383 2453 c9 -2 23 -2 30 0 6 3 -1 5 -18 5 -16 0 -22 -2 -12 -5z"/>
<path d="M4298 2443 c6 -2 18 -2 25 0 6 3 1 5 -13 5 -14 0 -19 -2 -12 -5z"/>
<path d="M4205 2430 c-18 -8 -17 -9 7 -9 15 -1 30 4 33 9 7 12 -12 12 -40 0z"/>
<path d="M4110 2410 c0 -5 7 -7 15 -4 8 4 15 8 15 10 0 2 -7 4 -15 4 -8 0 -15
-4 -15 -10z"/>
<path d="M4000 2403 c-14 -3 -29 -9 -35 -14 -11 -11 66 -2 100 12 16 6 15 8
-10 7 -16 0 -41 -3 -55 -5z"/>
<path d="M3872 2380 c-37 -9 -54 -20 -30 -20 31 0 78 13 78 21 0 10 -2 10 -48
-1z"/>
<path d="M3750 2360 c-12 -7 -8 -10 15 -10 17 0 37 5 45 10 12 7 8 10 -15 10
-16 0 -37 -5 -45 -10z"/>
<path d="M3635 2340 c-8 -12 42 -12 70 0 16 7 11 9 -22 9 -23 1 -45 -3 -48 -9z"/>
<path d="M3562 2331 c-11 -7 -11 -9 0 -13 18 -7 39 2 32 13 -6 11 -15 11 -32
0z"/>
<path d="M3499 2326 c-2 -2 -105 -18 -229 -35 -366 -51 -547 -81 -603 -102
-62 -23 -57 -22 198 19 105 18 290 45 412 62 235 32 256 37 247 51 -5 9 -18
12 -25 5z"/>
<path d="M6050 2175 c0 -6 107 -75 290 -187 178 -109 290 -172 290 -164 0 3
-89 58 -197 123 -109 64 -240 143 -290 175 -51 31 -93 55 -93 53z"/>
<path d="M1085 2470 c-3 -6 -3 -10 2 -10 4 0 7 -33 6 -72 -1 -51 1 -65 7 -48
4 14 8 42 9 64 1 32 4 37 19 30 14 -6 179 -65 242 -86 38 -13 128 -38 136 -38
20 0 -59 40 -108 56 -29 9 -62 20 -73 25 -11 5 -45 18 -75 28 -30 11 -78 29
-107 40 -32 13 -54 17 -58 11z"/>
<path d="M2214 2082 c7 -11 381 -298 467 -358 31 -21 105 -73 165 -115 117
-81 304 -202 369 -239 82 -47 157 -82 162 -77 4 5 -74 59 -127 87 -24 12 -71
42 -235 149 -87 56 -342 236 -583 409 -185 133 -230 163 -218 144z"/>
<path d="M1110 1631 c0 -15 12 -20 178 -73 236 -75 323 -99 335 -95 27 10
-182 89 -387 147 -121 33 -126 34 -126 21z"/>
<path d="M2075 6290 c-7 -12 2 -30 16 -30 12 0 12 27 0 35 -5 3 -12 1 -16 -5z"/>
<path d="M2505 5566 c-231 -184 -341 -294 -436 -433 -173 -254 -213 -492 -154
-903 14 -96 28 -176 30 -179 9 -8 5 32 -10 124 -38 236 -38 499 0 646 37 141
125 298 241 427 51 56 195 186 310 279 53 43 160 142 154 143 -4 0 -64 -47
-135 -104z"/>
<path d="M1340 5279 c0 -24 23 -21 28 4 2 10 -3 17 -12 17 -10 0 -16 -9 -16
-21z"/>
<path d="M5760 4973 c0 -21 163 -124 313 -199 92 -47 170 -91 174 -100 3 -9
-5 -27 -21 -43 -14 -15 -26 -30 -26 -34 0 -24 254 -177 294 -177 8 0 32 21 53
47 l40 47 44 -26 c427 -249 957 -511 1002 -495 11 4 -68 44 -363 185 -47 23
-141 71 -210 107 -243 129 -249 143 -24 51 199 -81 473 -178 488 -173 16 5
-224 119 -354 167 -268 100 -771 329 -1197 547 -111 57 -204 103 -207 103 -3
0 -6 -3 -6 -7z"/>
<path d="M1160 4206 c0 -14 5 -26 10 -26 6 0 10 9 10 19 0 11 -4 23 -10 26 -6
4 -10 -5 -10 -19z"/>
<path d="M6860 4148 c0 -45 169 -185 359 -297 179 -106 458 -229 556 -246 36
-7 38 -6 25 8 -8 9 -56 33 -106 55 -198 87 -460 232 -419 232 6 0 66 -25 134
-56 349 -155 725 -285 1141 -392 181 -47 271 -64 320 -60 136 10 -46 103 -530
272 -102 36 -230 81 -285 101 -55 20 -129 47 -165 60 -36 13 -96 35 -135 50
-38 14 -92 35 -120 45 -27 10 -61 23 -75 29 -70 30 -426 162 -499 185 -46 15
-110 29 -142 33 -58 6 -59 5 -59 -19z m580 -202 c427 -140 983 -351 1084 -410
43 -25 59 -46 36 -46 -39 0 -440 122 -677 206 -258 91 -642 260 -678 296 -21
22 103 -2 235 -46z"/>
<path d="M1116 4122 c-3 -5 1 -12 9 -15 12 -5 12 -10 -2 -38 -13 -26 -15 -54
-10 -168 7 -145 14 -191 28 -191 5 0 9 18 9 41 0 34 3 40 18 35 51 -15 104
-26 167 -36 39 -6 100 -18 138 -27 60 -15 67 -19 67 -41 0 -20 -2 -22 -15 -12
-8 6 -76 23 -152 37 -205 36 -217 38 -209 25 4 -7 13 -12 19 -12 7 -1 26 -7
42 -14 28 -12 27 -13 -25 -8 -49 4 -53 3 -40 -11 17 -17 198 -55 306 -64 65
-5 74 -4 74 11 0 9 6 15 13 14 8 -2 13 12 15 41 4 57 -46 383 -61 397 -7 6
-68 17 -137 24 -207 21 -247 23 -254 12z m179 -58 c50 -9 112 -18 138 -21 39
-5 51 -11 59 -29 6 -13 9 -27 5 -30 -3 -3 -32 0 -64 6 -32 7 -110 18 -173 24
-115 11 -115 11 -118 39 -3 25 0 27 30 27 18 0 74 -7 123 -16z m-5 -75 c30 -6
74 -15 97 -20 23 -5 55 -9 70 -9 34 0 53 -16 53 -43 0 -15 -5 -18 -22 -14
-131 31 -224 47 -280 47 l-68 0 0 31 0 31 48 -6 c26 -4 72 -12 102 -17z m106
-88 c117 -26 124 -29 124 -52 0 -23 7 -23 -116 -4 -276 42 -259 38 -262 64
l-4 24 84 -6 c45 -3 124 -15 174 -26z m-38 -77 c133 -22 165 -31 173 -46 17
-32 4 -50 -27 -38 -15 6 -93 22 -173 36 -170 29 -191 36 -191 65 0 18 4 20 28
16 15 -3 100 -18 190 -33z"/>
<path d="M1952 4020 c0 -14 6 -47 13 -75 l14 -50 -6 50 c-3 27 -9 61 -14 75
l-7 25 0 -25z"/>
<path d="M1981 3864 c0 -11 3 -14 6 -6 3 7 2 16 -1 19 -3 4 -6 -2 -5 -13z"/>
<path d="M8130 3384 c0 -9 109 -54 183 -74 85 -24 271 -44 607 -65 341 -22
470 -39 772 -106 149 -32 245 -60 382 -108 107 -38 217 -64 248 -59 19 4 15 8
-27 27 -180 83 -552 181 -925 245 -251 43 -344 55 -633 81 -155 14 -351 35
-435 46 -169 21 -172 21 -172 13z"/>
<path d="M1310 2746 c28 -27 312 -108 327 -93 3 4 3 10 0 14 -9 9 -298 92
-322 93 -17 0 -17 -2 -5 -14z"/>
<path d="M6072 1363 l-59 -58 56 49 c31 27 60 53 66 58 5 4 6 8 2 8 -3 0 -33
-26 -65 -57z"/>
<path d="M6265 1325 c-190 -39 -706 -163 -713 -170 -14 -14 58 0 280 54 134
33 288 69 343 81 151 32 275 62 275 66 0 7 -23 3 -185 -31z"/>
<path d="M4669 1113 c-13 -16 -12 -17 4 -4 16 13 21 21 13 21 -2 0 -10 -8 -17
-17z"/>
<path d="M3779 913 c-13 -17 -13 -17 6 -3 11 8 22 16 24 17 2 2 0 3 -6 3 -6 0
-17 -8 -24 -17z"/>
</g>
</svg>
