<svg id="visual" viewBox="0 0 960 540" width="960" height="540" xmlns="http://www.w3.org/2000/svg" xmlns:xlink="http://www.w3.org/1999/xlink" version="1.1"><path d="M0 204L17.8 219.3C35.7 234.7 71.3 265.3 106.8 277.8C142.3 290.3 177.7 284.7 213.2 276.2C248.7 267.7 284.3 256.3 320 261.8C355.7 267.3 391.3 289.7 426.8 290.5C462.3 291.3 497.7 270.7 533.2 260C568.7 249.3 604.3 248.7 640 267C675.7 285.3 711.3 322.7 746.8 327.3C782.3 332 817.7 304 853.2 282.3C888.7 260.7 924.3 245.3 942.2 237.7L960 230L960 541L942.2 541C924.3 541 888.7 541 853.2 541C817.7 541 782.3 541 746.8 541C711.3 541 675.7 541 640 541C604.3 541 568.7 541 533.2 541C497.7 541 462.3 541 426.8 541C391.3 541 355.7 541 320 541C284.3 541 248.7 541 213.2 541C177.7 541 142.3 541 106.8 541C71.3 541 35.7 541 17.8 541L0 541Z" fill="#00d8ff"></path><path d="M0 388L17.8 375.2C35.7 362.3 71.3 336.7 106.8 317.7C142.3 298.7 177.7 286.3 213.2 282.7C248.7 279 284.3 284 320 283.5C355.7 283 391.3 277 426.8 283C462.3 289 497.7 307 533.2 314C568.7 321 604.3 317 640 307.2C675.7 297.3 711.3 281.7 746.8 269.7C782.3 257.7 817.7 249.3 853.2 250.8C888.7 252.3 924.3 263.7 942.2 269.3L960 275L960 541L942.2 541C924.3 541 888.7 541 853.2 541C817.7 541 782.3 541 746.8 541C711.3 541 675.7 541 640 541C604.3 541 568.7 541 533.2 541C497.7 541 462.3 541 426.8 541C391.3 541 355.7 541 320 541C284.3 541 248.7 541 213.2 541C177.7 541 142.3 541 106.8 541C71.3 541 35.7 541 17.8 541L0 541Z" fill="#00def9"></path><path d="M0 302L17.8 301.8C35.7 301.7 71.3 301.3 106.8 312.8C142.3 324.3 177.7 347.7 213.2 346.5C248.7 345.3 284.3 319.7 320 316.8C355.7 314 391.3 334 426.8 334.3C462.3 334.7 497.7 315.3 533.2 315.5C568.7 315.7 604.3 335.3 640 343.2C675.7 351 711.3 347 746.8 344.8C782.3 342.7 817.7 342.3 853.2 332.3C888.7 322.3 924.3 302.7 942.2 292.8L960 283L960 541L942.2 541C924.3 541 888.7 541 853.2 541C817.7 541 782.3 541 746.8 541C711.3 541 675.7 541 640 541C604.3 541 568.7 541 533.2 541C497.7 541 462.3 541 426.8 541C391.3 541 355.7 541 320 541C284.3 541 248.7 541 213.2 541C177.7 541 142.3 541 106.8 541C71.3 541 35.7 541 17.8 541L0 541Z" fill="#00e4f1"></path><path d="M0 378L17.8 375C35.7 372 71.3 366 106.8 360.2C142.3 354.3 177.7 348.7 213.2 349.5C248.7 350.3 284.3 357.7 320 368.2C355.7 378.7 391.3 392.3 426.8 391.5C462.3 390.7 497.7 375.3 533.2 361.5C568.7 347.7 604.3 335.3 640 348C675.7 360.7 711.3 398.3 746.8 400.3C782.3 402.3 817.7 368.7 853.2 360C888.7 351.3 924.3 367.7 942.2 375.8L960 384L960 541L942.2 541C924.3 541 888.7 541 853.2 541C817.7 541 782.3 541 746.8 541C711.3 541 675.7 541 640 541C604.3 541 568.7 541 533.2 541C497.7 541 462.3 541 426.8 541C391.3 541 355.7 541 320 541C284.3 541 248.7 541 213.2 541C177.7 541 142.3 541 106.8 541C71.3 541 35.7 541 17.8 541L0 541Z" fill="#00eae7"></path><path d="M0 444L17.8 446.2C35.7 448.3 71.3 452.7 106.8 451C142.3 449.3 177.7 441.7 213.2 425.8C248.7 410 284.3 386 320 372.8C355.7 359.7 391.3 357.3 426.8 368.5C462.3 379.7 497.7 404.3 533.2 405.8C568.7 407.3 604.3 385.7 640 383.7C675.7 381.7 711.3 399.3 746.8 406.8C782.3 414.3 817.7 411.7 853.2 413.7C888.7 415.7 924.3 422.3 942.2 425.7L960 429L960 541L942.2 541C924.3 541 888.7 541 853.2 541C817.7 541 782.3 541 746.8 541C711.3 541 675.7 541 640 541C604.3 541 568.7 541 533.2 541C497.7 541 462.3 541 426.8 541C391.3 541 355.7 541 320 541C284.3 541 248.7 541 213.2 541C177.7 541 142.3 541 106.8 541C71.3 541 35.7 541 17.8 541L0 541Z" fill="#20eedb"></path><path d="M0 415L17.8 411.5C35.7 408 71.3 401 106.8 399.5C142.3 398 177.7 402 213.2 402.7C248.7 403.3 284.3 400.7 320 402.5C355.7 404.3 391.3 410.7 426.8 413C462.3 415.3 497.7 413.7 533.2 421.2C568.7 428.7 604.3 445.3 640 443.2C675.7 441 711.3 420 746.8 414.2C782.3 408.3 817.7 417.7 853.2 421.2C888.7 424.7 924.3 422.3 942.2 421.2L960 420L960 541L942.2 541C924.3 541 888.7 541 853.2 541C817.7 541 782.3 541 746.8 541C711.3 541 675.7 541 640 541C604.3 541 568.7 541 533.2 541C497.7 541 462.3 541 426.8 541C391.3 541 355.7 541 320 541C284.3 541 248.7 541 213.2 541C177.7 541 142.3 541 106.8 541C71.3 541 35.7 541 17.8 541L0 541Z" fill="#44f2cd"></path><path d="M0 480L17.8 476.8C35.7 473.7 71.3 467.3 106.8 469.3C142.3 471.3 177.7 481.7 213.2 485.5C248.7 489.3 284.3 486.7 320 486.2C355.7 485.7 391.3 487.3 426.8 488.5C462.3 489.7 497.7 490.3 533.2 481C568.7 471.7 604.3 452.3 640 442.2C675.7 432 711.3 431 746.8 432.5C782.3 434 817.7 438 853.2 440.5C888.7 443 924.3 444 942.2 444.5L960 445L960 541L942.2 541C924.3 541 888.7 541 853.2 541C817.7 541 782.3 541 746.8 541C711.3 541 675.7 541 640 541C604.3 541 568.7 541 533.2 541C497.7 541 462.3 541 426.8 541C391.3 541 355.7 541 320 541C284.3 541 248.7 541 213.2 541C177.7 541 142.3 541 106.8 541C71.3 541 35.7 541 17.8 541L0 541Z" fill="#62f5bd"></path><path d="M0 470L17.8 470.2C35.7 470.3 71.3 470.7 106.8 471.2C142.3 471.7 177.7 472.3 213.2 474.2C248.7 476 284.3 479 320 485.7C355.7 492.3 391.3 502.7 426.8 507.8C462.3 513 497.7 513 533.2 506.8C568.7 500.7 604.3 488.3 640 484.5C675.7 480.7 711.3 485.3 746.8 490C782.3 494.7 817.7 499.3 853.2 502.8C888.7 506.3 924.3 508.7 942.2 509.8L960 511L960 541L942.2 541C924.3 541 888.7 541 853.2 541C817.7 541 782.3 541 746.8 541C711.3 541 675.7 541 640 541C604.3 541 568.7 541 533.2 541C497.7 541 462.3 541 426.8 541C391.3 541 355.7 541 320 541C284.3 541 248.7 541 213.2 541C177.7 541 142.3 541 106.8 541C71.3 541 35.7 541 17.8 541L0 541Z" fill="#7df8ad"></path></svg>